<svg xmlns="http://www.w3.org/2000/svg" viewBox="0 0 512 512">
  <defs>
    <linearGradient id="bg" x1="0" y1="0" x2="512" y2="512" gradientUnits="userSpaceOnUse">
      <stop offset="0%" stop-color="#FF6820"/>
      <stop offset="100%" stop-color="#FF0D00"/>
    </linearGradient>
    <linearGradient id="redTop" x1="0" y1="0" x2="0" y2="1">
      <stop offset="0%" stop-color="#FF2E1A"/>
      <stop offset="100%" stop-color="#C00000"/>
    </linearGradient>
    <linearGradient id="orTop" x1="0" y1="0" x2="0" y2="1">
      <stop offset="0%" stop-color="#FF7A1A"/>
      <stop offset="100%" stop-color="#FF3300"/>
    </linearGradient>
    <clipPath id="card">
      <rect x="66" y="66" width="380" height="380" rx="74"/>
    </clipPath>
  </defs>

  <!-- Outer rounded square -->
  <rect width="512" height="512" rx="112" fill="url(#bg)"/>
  <!-- White card -->
  <rect x="66" y="66" width="380" height="380" rx="74" fill="#fff"/>

  <g clip-path="url(#card)">
    <!-- BACK chevron (upper-left, red) -->
    <!-- face: outer triangle minus inner notch -->
    <polygon points="128,130 268,230 128,330 128,282 200,230 128,178"
             fill="url(#redTop)"/>
    <!-- fold strip along the left vertical edge (darker) -->
    <polygon points="128,130 168,154 168,306 128,330" fill="#7A0000"/>

    <!-- FRONT chevron (lower-right, orange) -->
    <polygon points="228,182 368,282 228,382 228,334 300,282 228,230"
             fill="url(#orTop)"/>
    <polygon points="228,182 268,206 268,358 228,382" fill="#B02500"/>
  </g>
</svg>
